# Made in Blockbench 4.10.1
mtllib table_coral.mtl

o cube
v 0.1875 -0.5000000000000001 -0.1874999999999999
v 0.1875 -5.551115123125783e-17 -0.1875
v 0.1875 -0.5000000000000001 -0.3124999999999999
v 0.1875 -5.551115123125783e-17 -0.3125
v -0.4375 -5.551115123125783e-17 -0.1875
v -0.4375 -0.5000000000000001 -0.1874999999999999
v -0.4375 -5.551115123125783e-17 -0.3125
v -0.4375 -0.5000000000000001 -0.3124999999999999
vt 0.125 0.71875
vt 0.28125 0.71875
vt 0.28125 0.6875
vt 0.125 0.6875
vt 0 0.71875
vt 0.125 0.71875
vt 0.125 0.6875
vt 0 0.6875
vt 0.40625 0.71875
vt 0.5625 0.71875
vt 0.5625 0.6875
vt 0.40625 0.6875
vt 0.28125 0.71875
vt 0.40625 0.71875
vt 0.40625 0.6875
vt 0.28125 0.6875
vt 0.28125 0.71875
vt 0.125 0.71875
vt 0.125 0.84375
vt 0.28125 0.84375
vt 0.4375 0.84375
vt 0.28125 0.84375
vt 0.28125 0.71875
vt 0.4375 0.71875
vn 0 1 -2.220446049250313e-16
vn 1 0 0
vn 0 -1 2.220446049250313e-16
vn -1 0 0
vn 0 2.220446049250313e-16 1
vn 0 -2.220446049250313e-16 -1
usemtl m_c93364be-24a5-b00b-5236-55ee6c6b43ca
f 4/4/1 7/3/1 5/2/1 2/1/1
f 3/8/2 4/7/2 2/6/2 1/5/2
f 8/12/3 3/11/3 1/10/3 6/9/3
f 7/16/4 8/15/4 6/14/4 5/13/4
f 6/20/5 1/19/5 2/18/5 5/17/5
f 7/24/6 4/23/6 3/22/6 8/21/6
o cube
v 0.4375 -0.49999999999999994 0.3125000000000001
v 0.4375 1.1102230246251565e-16 0.3125
v 0.4375 -0.49999999999999994 0.1875000000000001
v 0.4375 0 0.1875
v -0.1875 1.1102230246251565e-16 0.3125
v -0.1875 -0.49999999999999994 0.3125000000000001
v -0.1875 0 0.1875
v -0.1875 -0.49999999999999994 0.1875000000000001
vt 0.125 0.875
vt 0.28125 0.875
vt 0.28125 0.84375
vt 0.125 0.84375
vt 0 0.875
vt 0.125 0.875
vt 0.125 0.84375
vt 0 0.84375
vt 0.40625 0.875
vt 0.5625 0.875
vt 0.5625 0.84375
vt 0.40625 0.84375
vt 0.28125 0.875
vt 0.40625 0.875
vt 0.40625 0.84375
vt 0.28125 0.84375
vt 0.28125 0.875
vt 0.125 0.875
vt 0.125 1
vt 0.28125 1
vt 0.4375 1
vt 0.28125 1
vt 0.28125 0.875
vt 0.4375 0.875
vn 0 1 -2.220446049250313e-16
vn 1 0 0
vn 0 -1 2.220446049250313e-16
vn -1 0 0
vn 0 2.220446049250313e-16 1
vn 0 -2.220446049250313e-16 -1
usemtl m_c93364be-24a5-b00b-5236-55ee6c6b43ca
f 12/28/7 15/27/7 13/26/7 10/25/7
f 11/32/8 12/31/8 10/30/8 9/29/8
f 16/36/9 11/35/9 9/34/9 14/33/9
f 15/40/10 16/39/10 14/38/10 13/37/10
f 14/44/11 9/43/11 10/42/11 13/41/11
f 15/48/12 12/47/12 11/46/12 16/45/12